IKResults
version=1
nRows=10
nColumns=40
inDegrees=yes

Units are S.I. units (second, meters, Newtons, ...)
Angles are in degrees.

endheader
time	pelvis_tilt	pelvis_list	pelvis_rotation	pelvis_tx	pelvis_ty	pelvis_tz	hip_flexion_r	hip_adduction_r	hip_rotation_r	knee_angle_r	knee_angle_r_beta	ankle_angle_r	subtalar_angle_r	mtp_angle_r	hip_flexion_l	hip_adduction_l	hip_rotation_l	knee_angle_l	knee_angle_l_beta	ankle_angle_l	subtalar_angle_l	mtp_angle_l	lumbar_extension	lumbar_bending	lumbar_rotation	arm_flex_r	arm_add_r	arm_rot_r	elbow_flex_r	pro_sup_r	wrist_flex_r	wrist_dev_r	arm_flex_l	arm_add_l	arm_rot_l	elbow_flex_l	pro_sup_l	wrist_flex_l	wrist_dev_l
      0.00000000	     17.13754952	     -1.53341047	     -2.98891086	     -1.25655092	      0.95310653	      1.39976618	      2.14808575	     -2.30734326	     -9.99890328	    -30.80854625	     -0.53771057	      4.62226959	    -11.15433792	      1.91785818	    -21.77827312	     -2.32967787	     21.20404355	     -8.15018177	     -0.14224751	      9.47380949	     -3.77120882	     -3.00791451	    -26.45430873	     -1.28998583	     -2.29238140	     -2.93043304	    -11.31561966	      5.15891570	     31.32790636	     89.95437384	      0.00000000	      0.00000000	     14.41349887	     10.90460004	     -1.32625105	     33.27769113	     89.95437384	      0.00000000	      0.00000000
      0.01000000	     17.08224035	     -1.79664526	     -2.95766065	     -1.25244168	      0.95290194	      1.39963110	      2.27654306	     -1.82208371	     -9.97547148	    -29.00253960	     -0.50618981	      3.76740564	     -9.69652743	      1.96153724	    -21.97441225	     -2.06932568	     21.14555367	     -8.23371628	     -0.14370546	      9.71203201	     -3.60613503	     -3.13551959	    -26.43471984	     -0.96906310	     -2.28272428	     -2.93384893	    -11.27913683	      4.85535136	     31.22338211	     89.95437384	      0.00000000	      0.00000000	     14.39124789	     10.81837079	     -1.71022336	     33.86727974	     89.95437384	      0.00000000	      0.00000000
      0.02000000	     17.04092355	     -1.97531113	     -2.70146470	     -1.24804307	      0.95263305	      1.39911691	      2.33933070	     -1.57478994	    -10.59161586	    -27.27920475	     -0.47611194	      2.90843021	     -7.82687263	      1.79018340	    -22.15485538	     -1.81036433	     20.88887854	     -8.39746243	     -0.14656337	      9.95064432	     -3.50431050	     -3.31325671	    -26.39840783	     -0.63063536	     -2.43100382	     -3.04705030	    -11.23551129	      4.44569515	     31.21870501	     89.95437384	      0.00000000	      0.00000000	     14.48490049	     10.74358504	     -2.41000241	     34.22367731	     89.95437384	      0.00000000	      0.00000000
      0.03000000	     16.66212669	     -1.88969282	     -2.83124112	     -1.24384562	      0.95172641	      1.39893023	      3.07358375	     -1.58379439	    -10.74467758	    -26.09302983	     -0.45540928	      2.11780844	     -6.81984860	      1.77554953	    -21.94909629	     -1.96258930	     20.91205444	     -8.52216041	     -0.14873976	     10.20916627	     -3.40666654	     -3.32347014	    -26.01789481	     -0.67925685	     -2.45406728	     -3.07444670	    -11.25236634	      4.35808445	     31.13707167	     89.95437384	      0.00000000	      0.00000000	     14.39313068	     10.61980396	     -2.70263700	     34.73984995	     89.95437384	      0.00000000	      0.00000000
      0.04000000	     16.98769140	     -2.33136365	     -2.30743889	     -1.23920142	      0.95206721	      1.39835415	      2.48127200	     -1.10034291	    -11.92009308	    -24.13078168	     -0.42116159	      0.86799982	     -4.20694942	      1.29012226	    -22.55568242	     -1.34292720	     20.42388561	     -8.69625587	     -0.15177830	     10.55388561	     -3.20206181	     -3.56296843	    -26.39826558	      0.00014542	     -2.69176115	     -3.14499424	    -11.18014935	      3.79741970	     31.07475309	     89.95437384	      0.00000000	      0.00000000	     14.53930071	     10.59123367	     -3.68303094	     35.09528375	     89.95437384	      0.00000000	      0.00000000
      0.05000000	     16.89578730	     -2.47581020	     -2.19153884	     -1.23467441	      0.95160824	      1.39818453	      2.68994985	     -0.89371280	    -12.56415590	    -22.82608243	     -0.39839029	     -0.10644426	     -2.75818971	      1.04504418	    -22.66718069	     -1.14461480	     20.38770975	     -8.89187827	     -0.15519255	     10.89018015	     -2.87821064	     -3.63025273	    -26.30669647	      0.23617688	     -2.74238900	     -3.17205128	    -11.14778954	      3.54783544	     30.90298440	     89.95437384	      0.00000000	      0.00000000	     14.61406321	     10.48526662	     -4.35000031	     35.38140271	     89.95437384	      0.00000000	      0.00000000
      0.06000000	     16.94786617	     -2.63293523	     -1.83266877	     -1.22977318	      0.95124860	      1.39750527	      2.60333181	     -0.76400027	    -13.79283986	    -21.47667197	     -0.37483864	     -0.80418835	     -1.05749584	      0.54506293	    -22.94148919	     -0.90114541	     19.87041419	     -9.10782111	     -0.15896147	     11.26083640	     -2.75593539	     -3.80713534	    -26.35463184	      0.61729733	     -2.99347032	     -3.29358311	    -11.16081911	      3.24470982	     30.89805125	     89.95437384	      0.00000000	      0.00000000	     14.66671305	     10.37740985	     -5.10063658	     35.74239126	     89.95437384	      0.00000000	      0.00000000
      0.07000000	     16.95288399	     -2.76819583	     -1.62451655	     -1.22489230	      0.95083613	      1.39714400	      2.64353038	     -0.62317883	    -14.79938689	    -20.36665998	     -0.35546527	     -1.10002049	      0.22655774	     -0.04624588	    -23.18210783	     -0.70339090	     19.57209241	     -9.29261427	     -0.16218672	     11.60321856	     -2.50795667	     -3.94413496	    -26.35379251	      0.90379355	     -3.05647440	     -3.42309881	    -11.17478880	      2.93987515	     30.83621410	     89.95437384	      0.00000000	      0.00000000	     14.81774810	     10.23022917	     -5.89295655	     35.93106662	     89.95437384	      0.00000000	      0.00000000
      0.08000000	     16.69549109	     -2.83884815	     -1.58750658	     -1.22010441	      0.95002454	      1.39707703	      3.01619340	     -0.45077906	    -15.23405770	    -19.39573972	     -0.33851952	     -1.11918337	      0.95531157	     -0.23850163	    -23.11524284	     -0.61315137	     19.44878238	     -9.49501432	     -0.16571926	     11.85595676	     -2.31201425	     -3.98212174	    -26.07586678	      1.06576966	     -3.13325842	     -3.41210925	    -11.18360577	      2.87879216	     30.61603642	     89.95437384	      0.00000000	      0.00000000	     14.89714878	     10.07128507	     -6.39384726	     36.05753297	     89.95437384	      0.00000000	      0.00000000
      0.09000000	     16.88891656	     -3.08409845	     -1.20885942	     -1.21472012	      0.94978516	      1.39674821	      2.66316710	     -0.15028188	    -16.48460943	    -18.21264340	     -0.31787059	     -0.99978586	      2.08868748	     -0.72979311	    -23.54507631	     -0.20861224	     19.10806484	     -9.78614724	     -0.17080049	     12.24986760	     -2.09297061	     -4.15441031	    -26.24485394	      1.50683478	     -3.27027826	     -3.59990945	    -11.18470774	      2.52599532	     30.60458601	     89.95437384	      0.00000000	      0.00000000	     15.00361951	      9.93964303	     -7.17244590	     36.32551912	     89.95437384	      0.00000000	      0.00000000
